<svg id="visual" viewBox="0 0 900 300" width="900" height="300" xmlns="http://www.w3.org/2000/svg" xmlns:xlink="http://www.w3.org/1999/xlink" version="1.1"><rect x="0" y="0" width="900" height="300" fill="#0f0f10"></rect><g transform="translate(448.0542291550188 152.63457895940323)"><path d="M62.8 -81.4C84 -71 105.7 -56.2 116.7 -34.9C127.8 -13.7 128.1 14 115.8 33.2C103.4 52.4 78.5 63 57.1 68.5C35.7 74.1 17.8 74.5 -3.6 79.5C-25.1 84.5 -50.2 94 -73.9 89.3C-97.7 84.5 -120.2 65.4 -121.1 43.8C-122.1 22.1 -101.4 -2.1 -86.1 -21.4C-70.7 -40.7 -60.6 -55.1 -47.2 -68.1C-33.7 -81.1 -16.8 -92.5 2 -95.2C20.8 -97.9 41.5 -91.8 62.8 -81.4" fill="#BB004B"></path></g></svg>